<?xml version="1.0" encoding="utf-8"?>
<!-- Generator: Adobe Illustrator 16.0.0, SVG Export Plug-In . SVG Version: 6.00 Build 0)  -->
<!DOCTYPE svg PUBLIC "-//W3C//DTD SVG 1.1//EN" "http://www.w3.org/Graphics/SVG/1.1/DTD/svg11.dtd">
<svg version="1.1" id="圖層_1" xmlns="http://www.w3.org/2000/svg" xmlns:xlink="http://www.w3.org/1999/xlink" x="0px" y="0px"
	 width="50px" height="70px" viewBox="57 95 45 70" enable-background="new 0 0 595.28 841.89" xml:space="preserve">
<g>
	<g>
		<path fill="#71685C" d="M78.541,129.772c2.906,5.754,5.5,2.66,5.896,2.361c0.398-0.298,2.183-1.785,2.281-4.067
			c0.099-2.281-1.389-2.182-1.389-2.182s1.039,4.452-2.082,4.664c-3.124,0.211-3.373-3.572-3.076-4.961
			c0.297-1.389,3.076-3.868,4.96-3.967c1.884-0.1,5.752,1.289,5.752,1.289s-1.486-1.587-3.372-2.282
			c-1.886-0.693-6.051,0.497-6.051,0.497C79.879,121.997,77.722,128.151,78.541,129.772z"/>
		<path fill="#71685C" d="M77.083,124.938c0.231-1.379,0.22-3.426,0.47-4.807c0.373-2.056,1.168-4.017,2.057-5.914
			c1.735-3.697,4.164-7.687,7.748-9.857c7.042-4.264,15.671-4.959,15.671-4.959s-9.224,2.777-15.077,7.043
			c-5.852,4.265-7.09,8.729-7.09,8.729s3.209-2.796,6.396-3.572c1.988-0.483,3.968-0.794,3.968-0.794
			c-3.686,1.653-7.819,4.61-9.307,6.613c-1.583,2.129-2.745,4.496-3.411,7.054c-0.248,0.947-0.627,1.6-0.723,2.576
			c-0.075,0.757-0.295,1.745-0.21,2.521c0.042,0.404,0.185,0.794,0.3,1.181c0.179,0.601,0.286,1.378-0.334,1.692
			c-0.585,0.295-0.921,0.264-1.504,0.625c-0.466,0.286-1.248,0.875-1.772,1.122c0.801-0.806,1.104-2.036,1.472-3.088
			C75.925,130.56,76.783,126.731,77.083,124.938z"/>
	</g>
	<path fill="#9E9384" d="M74.534,128.974c-0.695-0.55,0.46-2.753,0.652-3.417c0.338-1.164,0.403-2.262,0.402-3.488
		c-0.082,0.671-0.417,1.46-0.658,2.094c-0.103,0.27-0.294,0.831-0.666,0.845c-1.04,0.04-0.113-3.521,0.151-4.058
		c0.76-1.539,1.561-3.059,1.561-4.824c0-5.407-2.704-7.799-2.704-7.799c0.002,0.001,0.002,0.002,0.002,0.003
		c0.78,1.645,1.282,3.488,1.446,5.297c0.133,1.434,0.026,2.92-0.529,4.261c-0.135,0.321-0.792,2.109-1.274,1.936
		c-0.195-0.07-0.247-0.59-0.294-0.749c-1,0.155-0.65,1.04-0.961,1.754c-0.131,0.295-0.36,0.671-0.58,0.904
		c-0.216,0.23-2.953,2.079-3.573,2.407c-0.293,0.154-0.574,0.32-0.876,0.455c-0.237,0.104-0.496,0.176-0.727,0.286
		c-0.1,0.046-0.302,0.128-0.366,0.215c-0.108,0.142-0.028,0.119,0.056,0.239c0.405,0.583,0.844,1.212,1.104,1.871
		c0.125,0.318,0.212,0.599,0.222,0.942c0.008,0.254-0.172,0.462-0.274,0.68c-0.078,0.168-0.169,0.327-0.271,0.481
		c-0.267,0.394-0.581,0.755-0.911,1.096c-0.323,0.331-0.665,0.651-1.04,0.922c-0.176,0.127-0.492,0.385-0.734,0.324
		c-0.013-0.003-0.026-0.01-0.038-0.017c-0.498-0.297-1.292-0.792-1.389-0.397c-0.101,0.397-1.291,4.366-1.291,4.366
		s0.893-1.477,1.687-1.879c0.792-0.403,0.792-0.403,0.792-0.403l0.397,0.894l0.498-1.363l0.593-0.522v1.396l0.695-1.792
		c0,0,1.983-1.984,2.976-2.777s0.993-1.686,0.993-1.686l-0.1-1.291c0.15-0.149,0.447-0.611,0.647-0.628
		c0.154-0.012,0.237,0.34,0.386,0.446c0.094,0.066,0.204,0.109,0.316,0.133c0.061,0.013,0.339-0.108,0.379-0.079
		c-1.054-0.751,0.155-1.628,0.751-2.054c0,0,0.099,0.794,0.298,1.488c0.196,0.693,0.196,1.389-0.497,1.885
		c-0.695,0.496-1.951,1.289-1.951,1.289s0.959,0.198,1.256,0.298c0.298,0.1,1.354-0.566,1.354-0.566s-0.096,0.309-0.141,0.754
		c-0.368,0.332-1.084,0.982-1.389,1.302c-0.696,0.726-0.76,0.003-1.583,0.386c-0.822,0.384-2.292,3.505-4.342,4.756
		c-2.047,1.25-3,3.478-3,3.478s1.724-2.735,3.793-3.592c2.069-0.86,2.385-4.305,3.98-4.282c1.541,0.021,2.218-0.769,2.523-1.42
		c0,0.032,0,0.063,0.003,0.096c0.064,0.893,0.102,1.864-0.16,2.731c-0.077,0.254-0.218,0.688-0.501,0.763
		c-0.293,0.077-1.425-0.595-1.595-0.564c-0.104,0.02-0.251,0.247-0.316,0.32c-0.282,0.308-0.568,0.608-0.868,0.9
		c-0.296,0.29-0.601,0.583-0.844,0.919c-0.281,0.39-0.057,0.899,0.056,1.307c0.043,0.16,0.17,0.36,0.178,0.524
		c0.007,0.193-0.604,1.423-0.819,1.814c-0.27,0.496-1.695,0.976-1.777,0.949c0,0,1.803,0.58,2.1,0.341
		c0.183-0.145,1.006-1.189,1.121-1.656c0.103-0.408,0.13-0.838,0.178-1.256c0.066-0.595,0.088-1.764,0.769-2.035
		c0.99-0.396,1.396-0.667,1.787-0.58c0.621,0.137,0.696,1.607,1.292,1.408c0.594-0.198,1.405-2.959,1.691-3.679
		c0.286-0.72-0.902-2.006-0.506-2.305c0.395-0.299,0.979,0.345,1.403-0.231c0.421-0.575,0.421-1.958,0.421-1.958
		C75.898,128.112,75.176,129.481,74.534,128.974z"/>
	<g>
		<path fill="#00A29A" d="M76.05,133.727c0,0-4.461,5.225-5.82,7.433c-1.997,3.247-2.92,6.944-1.525,9.06
			c1.395,2.116,1.262,1.455,1.262,1.455s-1.39-1.851-0.595-3.571c0.793-1.72,3.148-3.047,5.025-6.944
			C77.097,135.552,76.05,133.727,76.05,133.727z"/>
		<path fill="#00A29A" d="M75.19,142.417c0,0-2.285,2.001-3.394,4.1c-1.013,1.917-1.169,5.255,0,6.546
			c1.57,1.732,2.732,1.984,2.732,1.984s-1.807-1.292-1.409-2.681c0.395-1.388,2.158-3.873,2.488-5.857
			C75.938,144.525,75.19,142.417,75.19,142.417z"/>
		<path fill="#00A29A" d="M76.255,148.731c0,0-2.353,2.299-2.114,3.802c0.396,2.514,3.372,2.514,3.372,2.514
			s-0.881-0.861-0.805-2.91C76.785,150.088,76.255,148.731,76.255,148.731z"/>
	</g>
	<g>
		<path fill="#85CBBF" d="M92.752,132.32c-2.242,0.024-4.054,0.957-5.857,2.369c-1.294,1.014-2.054,1.81-3.749,4.207
			c-3.354,4.746-5.006,10.474-4.955,11.105c0.894-1.233,2.703-4.24,3.968-6.021c1.264-1.782,3.473-4.454,4.273-4.208
			c0.301,0.092,0,2.257,0,2.257s0.662-1.761,1.72-3.216c1.058-1.455,3.373-3.076,3.902-1.157c0.529,1.917-1.482,4.815-5.451,8.056
			c-3.968,3.239-8.062,5.835-8.452,9.728c-0.32,3.202,2.396,5.096,2.396,5.096s-1.498,2.029-2.227,2.823
			c-0.893,0.972-1.979,2.808-3.433,2.656c-0.524-0.054-1.514-0.59-1.843-1.029c-0.422-0.566-0.238-1.359,0.191-1.845
			c0.698-0.792,0.927-1.324,0.708-2.384c-0.293,0.242-0.457,1.17-0.962,1.098c0.14-0.498,0.349-0.888,0.371-1.416
			c0.021-0.556-0.026-1.186-0.212-1.715c0.056,0.16-0.428,0.804-0.504,0.986c-0.108,0.26-0.788,2.769-1.197,1.457
			c-0.096-0.303-0.16-0.662-0.061-0.968c-0.202,0.135-0.331,0.317-0.415,0.524c-0.159,0.381-0.166,0.844-0.195,1.234
			c-0.018,0.205-0.007,0.473,0.104,0.655c0.078,0.127,0.303,0.144,0.353,0.3c0.121,0.372-0.232,0.39-0.536,0.286
			c-0.34-0.114-0.573-0.389-0.834-0.604c-0.01,0.574,0.478,1.219,0.845,1.622c0.467,0.51,0.625,0.513,1.218,0.893
			c0.725,0.467,2.406,2.401,4.747,0.739c1.565-1.115,5.174-4.596,5.238-4.549c0,0,0.756,0.452,2.214,0.431
			c2.15-0.033,5.159-1.72,6.68-3.836c1.521-2.117,3.239-6.084,2.512-7.142c-0.727-1.057-2.712-1.256-3.572-0.859
			c-0.859,0.397-6.942,7.274-6.942,7.274s-0.717-1.406-0.133-3.174c0.865-2.617,2.448-5.092,5.754-7.406
			c3.306-2.314,7.604-5.423,8.2-8.664C96.982,135.916,95.245,132.298,92.752,132.32z M88.152,152.402
			c1.388-1.191,3.504-1.725,3.504-0.63c0.002,2.943-2.513,5.788-2.513,5.788s-0.397-0.067-0.397-0.728s0.332-1.785,0.332-1.785
			s-0.464,0.794-0.893,1.918c-0.429,1.124-0.892,2.975-1.819,2.711c-0.925-0.266-2.282-1.258-2.282-1.258
			S86.764,153.592,88.152,152.402z"/>
		<path fill="#85CBBF" d="M76.72,145.939c-0.024,0.399,0.337,0.858,0.422,1.249c0.059,0.268,0.585,1.074,0.704,1.292
			c0.158-1.389,1.072-4.162,2.301-6.211c1.229-2.049,2.399-3.894,2.869-4.759c0.587-1.085,1.159-2.182,1.696-3.293
			c0,0-3.235,3.503-4.352,4.688c-1.121,1.184-2.108,1.184-2.569,0.536c-0.459-0.647,0.379-4.683,0.379-4.683
			s-1.431,2.632-1.695,4.683c-0.199,1.54-0.241,2.31,0.281,3.755C76.999,143.864,76.762,145.246,76.72,145.939z"/>
	</g>
</g>
</svg>
